<svg xmlns="http://www.w3.org/2000/svg" version="1.1" xmlns:xlink="http://www.w3.org/1999/xlink" xmlns:svgjs="http://svgjs.dev/svgjs" width="1000" height="1000" viewBox="0 0 1000 1000"><g transform="matrix(1,0,0,1,-0.14221556886212738,-0.14221556886229791)"><svg viewBox="0 0 334 334" data-background-color="#ffffff" preserveAspectRatio="xMidYMid meet" height="1000" width="1000" xmlns="http://www.w3.org/2000/svg" xmlns:xlink="http://www.w3.org/1999/xlink"><g id="tight-bounds" transform="matrix(1,0,0,1,0.04749999999998522,0.04750000000001364)"><svg viewBox="0 0 333.90454557049503 333.90454557049503" height="333.90454557049503" width="333.90454557049503"><rect width="333.9049987792969" height="333.9049987792969" fill="url(#ab34fbcb-1b97-4d17-9acf-b30422290b09)" mask="url(&quot;#c46a7e1c-5c5d-45de-a435-ddf78e433fed&quot;)" data-fill-palette-color="tertiary"></rect><g><svg></svg></g><g><svg viewBox="0 0 333.90454557049503 333.90454557049503" height="333.90454557049503" width="333.90454557049503"><g><path d="M0 166.952c0-92.205 74.747-166.952 166.952-166.952 92.205 0 166.952 74.747 166.953 166.952 0 92.205-74.747 166.952-166.953 166.953-92.205 0-166.952-74.747-166.952-166.953zM166.952 316.63c82.665 0 149.677-67.013 149.678-149.678 0-82.665-67.013-149.677-149.678-149.677-82.665 0-149.677 67.013-149.677 149.677 0 82.665 67.013 149.677 149.677 149.678z" data-fill-palette-color="tertiary" fill="url(#ab34fbcb-1b97-4d17-9acf-b30422290b09)" stroke="transparent"></path><ellipse rx="160.27418187383762" ry="160.27418187383762" cx="166.95227278524752" cy="166.95227278524752" fill="url(#ab34fbcb-1b97-4d17-9acf-b30422290b09)" stroke="transparent" stroke-width="0" fill-opacity="1" data-fill-palette-color="tertiary"></ellipse></g><g transform="matrix(1,0,0,1,97.47861276272222,71.17305217166896)"><svg viewBox="0 0 138.9473200450506 191.55844122715712" height="191.55844122715712" width="138.9473200450506"><g><svg viewBox="0 0 138.9473200450506 191.55844122715712" height="191.55844122715712" width="138.9473200450506"><g><svg viewBox="0 0 138.9473200450506 191.55844122715712" height="191.55844122715712" width="138.9473200450506"><g><svg viewBox="0 0 138.9473200450506 191.55844122715712" height="191.55844122715712" width="138.9473200450506"><g id="textblocktransform"><svg viewBox="0 0 138.9473200450506 191.55844122715712" height="191.55844122715712" width="138.9473200450506" id="textblock"><g><svg viewBox="0 0 138.9473200450506 191.55844122715712" height="191.55844122715712" width="138.9473200450506"><g transform="matrix(1,0,0,1,0,0)"><svg width="138.9473200450506" viewBox="1.9000000953674316 -35 25.75 35.5" height="191.55844122715712" data-palette-color="#ffffff"><path d="M14.75 0.5L14.75 0.5Q12.2 0.5 9.93-0.15 7.65-0.8 5.88-2.1 4.1-3.4 3.05-5.4 2-7.4 1.9-10.1L1.9-10.1Q1.9-10.55 2.2-10.88 2.5-11.2 3-11.2L3-11.2 5.7-11.2Q6.25-11.2 6.58-10.88 6.9-10.55 7-10.05L7-10.05Q7.2-7.8 8.3-6.43 9.4-5.05 11.1-4.4 12.8-3.75 14.85-3.75L14.85-3.75Q18.65-3.75 20.65-6.25 22.65-8.75 22.65-12.9L22.65-12.9 22.65-30.65 4.9-30.65Q4.4-30.65 4.08-30.98 3.75-31.3 3.75-31.8L3.75-31.8 3.75-33.85Q3.75-34.35 4.08-34.68 4.4-35 4.9-35L4.9-35 26.45-35Q27-35 27.33-34.68 27.65-34.35 27.65-33.8L27.65-33.8 27.65-12.8Q27.65-8.75 26.1-5.75 24.55-2.75 21.7-1.13 18.85 0.5 14.75 0.5Z" opacity="1" transform="matrix(1,0,0,1,0,0)" fill="#ffffff" class="undefined-text-0" data-fill-palette-color="quaternary" id="text-0"></path></svg></g></svg></g></svg></g></svg></g><g></g></svg></g></svg></g></svg></g></svg></g><defs><linearGradient x1="0" x2="1" y1="0.548" y2="0.55" id="ab34fbcb-1b97-4d17-9acf-b30422290b09"><stop stop-color="#ff6cab" offset="0"></stop><stop stop-color="#7366ff" offset="1"></stop></linearGradient></defs><mask id="c46a7e1c-5c5d-45de-a435-ddf78e433fed"><g id="SvgjsG1040"><svg viewBox="0 0 333.90454557049503 333.90454557049503" height="333.90454557049503" width="333.90454557049503"><g><svg></svg></g><g><svg viewBox="0 0 333.90454557049503 333.90454557049503" height="333.90454557049503" width="333.90454557049503"><g><path d="M0 166.952c0-92.205 74.747-166.952 166.952-166.952 92.205 0 166.952 74.747 166.953 166.952 0 92.205-74.747 166.952-166.953 166.953-92.205 0-166.952-74.747-166.952-166.953zM166.952 316.63c82.665 0 149.677-67.013 149.678-149.678 0-82.665-67.013-149.677-149.678-149.677-82.665 0-149.677 67.013-149.677 149.677 0 82.665 67.013 149.677 149.677 149.678z" fill="white" stroke="transparent"></path><ellipse rx="160.27418187383762" ry="160.27418187383762" cx="166.95227278524752" cy="166.95227278524752" fill="white" stroke="transparent" stroke-width="0" fill-opacity="1"></ellipse></g><g transform="matrix(1,0,0,1,97.47861276272222,71.17305217166896)"><svg viewBox="0 0 138.9473200450506 191.55844122715712" height="191.55844122715712" width="138.9473200450506"><g><svg viewBox="0 0 138.9473200450506 191.55844122715712" height="191.55844122715712" width="138.9473200450506"><g><svg viewBox="0 0 138.9473200450506 191.55844122715712" height="191.55844122715712" width="138.9473200450506"><g><svg viewBox="0 0 138.9473200450506 191.55844122715712" height="191.55844122715712" width="138.9473200450506"><g id="SvgjsG1039"><svg viewBox="0 0 138.9473200450506 191.55844122715712" height="191.55844122715712" width="138.9473200450506" id="SvgjsSvg1038"><g><svg viewBox="0 0 138.9473200450506 191.55844122715712" height="191.55844122715712" width="138.9473200450506"><g transform="matrix(1,0,0,1,0,0)"><svg width="138.9473200450506" viewBox="1.9000000953674316 -35 25.75 35.5" height="191.55844122715712" data-palette-color="#ffffff"></svg></g></svg></g></svg></g></svg></g><g></g></svg></g></svg></g></svg></g></svg></g><defs><mask></mask></defs></svg></g></mask></svg><rect width="333.90454557049503" height="333.90454557049503" fill="none" stroke="none" visibility="hidden"></rect></g></svg></g></svg>